<svg width="40" height="40" viewBox="0 0 40 40" fill="none" xmlns="http://www.w3.org/2000/svg">
<path d="M20 40C31.0457 40 40 31.0457 40 20C40 8.9543 31.0457 0 20 0C8.9543 0 0 8.9543 0 20C0 31.0457 8.9543 40 20 40Z" fill="#0068BF"/>
<path fill-rule="evenodd" clip-rule="evenodd" d="M9.99933 14.1886C9.99933 14.1886 18.3735 19.1665 19.9989 19.1665C21.7025 19.1665 29.986 14.2837 29.986 14.2837L29.9993 13.4113C29.9993 12.4482 29.2536 11.6665 28.3323 11.6665H11.6655C10.745 11.6665 9.99933 12.4482 9.99933 13.4113V14.1886ZM29.986 16.6667C29.986 16.6667 21.7808 21.1224 19.9989 21.1224C18.3735 21.1224 10.0118 16.6667 10.0127 16.6667L9.99934 26.6667C9.99934 27.5867 10.7459 28.3333 11.6655 28.3333H28.3323C29.2536 28.3333 29.9993 27.5867 29.9993 26.6667L29.986 16.6667Z" fill="white"/>
</svg>
